G04*
G04 #@! TF.GenerationSoftware,Altium Limited,Altium Designer,24.5.2 (23)*
G04*
G04 Layer_Physical_Order=2*
G04 Layer_Color=16711680*
%FSLAX44Y44*%
%MOMM*%
G71*
G04*
G04 #@! TF.SameCoordinates,EC02D15A-6138-46D8-9CA9-48B3A346F35C*
G04*
G04*
G04 #@! TF.FilePolarity,Positive*
G04*
G01*
G75*
%ADD13R,0.9000X0.6600*%
%ADD14R,1.4500X0.9500*%
%ADD20C,0.5000*%
%ADD21O,2.0000X1.6000*%
%ADD22R,2.0000X1.6000*%
%ADD23C,0.6000*%
%ADD24C,0.3810*%
G36*
X155000Y134820D02*
X154634Y134748D01*
X152966Y133634D01*
X145273Y125940D01*
X127460D01*
Y104860D01*
X152540D01*
X155000Y103556D01*
Y93997D01*
X152000Y93400D01*
X151207Y95316D01*
X149517Y97517D01*
X147316Y99207D01*
X144752Y100269D01*
X142000Y100631D01*
X141270D01*
Y90000D01*
Y79369D01*
X142000D01*
X144752Y79731D01*
X147316Y80793D01*
X149517Y82483D01*
X151207Y84684D01*
X152000Y86600D01*
X155000Y86003D01*
Y10000D01*
X10000D01*
Y190000D01*
X155000D01*
Y134820D01*
D02*
G37*
%LPC*%
G36*
X138730Y100631D02*
X138000D01*
X135248Y100269D01*
X132684Y99207D01*
X130483Y97517D01*
X128793Y95316D01*
X127731Y92752D01*
X127536Y91270D01*
X138730D01*
Y100631D01*
D02*
G37*
G36*
Y88730D02*
X127536D01*
X127731Y87248D01*
X128793Y84684D01*
X130483Y82483D01*
X132684Y80793D01*
X135248Y79731D01*
X138000Y79369D01*
X138730D01*
Y88730D01*
D02*
G37*
G36*
X91270Y45470D02*
Y41270D01*
X95470D01*
X94697Y43138D01*
X93138Y44697D01*
X91270Y45470D01*
D02*
G37*
G36*
X88730D02*
X86862Y44697D01*
X85303Y43138D01*
X84530Y41270D01*
X88730D01*
Y45470D01*
D02*
G37*
G36*
X95470Y38730D02*
X91270D01*
Y34530D01*
X93138Y35303D01*
X94697Y36862D01*
X95470Y38730D01*
D02*
G37*
G36*
X88730D02*
X84530D01*
X85303Y36862D01*
X86862Y35303D01*
X88730Y34530D01*
Y38730D01*
D02*
G37*
%LPD*%
D13*
X175000Y71800D02*
D03*
Y82200D02*
D03*
D14*
Y129750D02*
D03*
Y110250D02*
D03*
D20*
Y82200D02*
Y110250D01*
X174750Y130000D02*
X175000Y129750D01*
X156600Y130000D02*
X174750D01*
X142000Y115400D02*
X156600Y130000D01*
X140000Y115400D02*
X142000D01*
D21*
X140000Y90000D02*
D03*
D22*
Y115400D02*
D03*
D23*
X90000Y40000D02*
D03*
D24*
X142000Y90000D02*
X160200Y71800D01*
X175000D01*
X140000Y90000D02*
X142000D01*
M02*
