G04*
G04 #@! TF.GenerationSoftware,Altium Limited,Altium Designer,24.5.2 (23)*
G04*
G04 Layer_Color=32896*
%FSLAX44Y44*%
%MOMM*%
G71*
G04*
G04 #@! TF.SameCoordinates,EC02D15A-6138-46D8-9CA9-48B3A346F35C*
G04*
G04*
G04 #@! TF.FilePolarity,Positive*
G04*
G01*
G75*
%ADD10C,0.2000*%
%ADD11C,0.2540*%
%ADD12R,1.8000X0.5000*%
D10*
X167000Y61000D02*
Y89000D01*
X183000Y61000D02*
Y89000D01*
X167000D02*
X183000D01*
X167000Y61000D02*
X183000D01*
X186000Y101000D02*
Y139000D01*
X164000Y101000D02*
Y139000D01*
X186000D01*
X164000Y101000D02*
X186000D01*
D11*
X187696Y147382D02*
Y162617D01*
X180078D01*
X177539Y160078D01*
Y155000D01*
X180078Y152461D01*
X187696D01*
X182617D02*
X177539Y147382D01*
X162304D02*
X172461D01*
X162304Y157539D01*
Y160078D01*
X164843Y162617D01*
X169922D01*
X172461Y160078D01*
X187696Y54618D02*
Y39382D01*
X180078D01*
X177539Y41922D01*
Y52078D01*
X180078Y54618D01*
X187696D01*
X162304Y39382D02*
X172461D01*
X162304Y49539D01*
Y52078D01*
X164843Y54618D01*
X169922D01*
X172461Y52078D01*
D12*
X175000Y63501D02*
D03*
M02*
