G04*
G04 #@! TF.GenerationSoftware,Altium Limited,Altium Designer,24.5.2 (23)*
G04*
G04 Layer_Color=65535*
%FSLAX44Y44*%
%MOMM*%
G71*
G04*
G04 #@! TF.SameCoordinates,EC02D15A-6138-46D8-9CA9-48B3A346F35C*
G04*
G04*
G04 #@! TF.FilePolarity,Positive*
G04*
G01*
G75*
%ADD10C,0.2000*%
%ADD11C,0.2540*%
%ADD12R,1.8000X0.5000*%
D10*
X123000Y89841D02*
Y115559D01*
X108000Y89700D02*
X123000Y89841D01*
X108000Y115700D02*
X123000Y115559D01*
X47000Y54000D02*
X63000D01*
X47000Y82000D02*
X63000D01*
X47000Y54000D02*
Y82000D01*
X63000Y54000D02*
Y82000D01*
X44000Y111000D02*
Y149000D01*
X66000Y111000D02*
Y149000D01*
X44000D02*
X66000D01*
X44000Y111000D02*
X66000D01*
X12000Y12000D02*
Y23996D01*
Y15999D02*
X17998Y19997D01*
X12000Y15999D02*
X17998Y12000D01*
X23996D02*
X27995D01*
X25996D01*
Y19997D01*
X23996D01*
X33993D02*
Y12000D01*
Y15999D01*
X35992Y17998D01*
X37992Y19997D01*
X39991D01*
X47988D02*
X51987D01*
X53986Y17998D01*
Y12000D01*
X47988D01*
X45989Y13999D01*
X47988Y15999D01*
X53986D01*
X92000Y87000D02*
X99997D01*
X92000Y115999D02*
X99997D01*
X95999Y119997D02*
Y112000D01*
D11*
X108007Y78272D02*
X171507D01*
X108007Y127572D02*
X171507D01*
X108007Y78272D02*
Y127572D01*
X171507Y78272D02*
Y127572D01*
X108007Y78272D02*
X171507D01*
X108007Y127572D02*
X171507D01*
X108007Y78272D02*
Y127572D01*
X171507Y78272D02*
Y127572D01*
X177540Y110240D02*
X182618D01*
X180079D01*
Y125475D01*
X177540Y122936D01*
X14843Y122382D02*
Y137618D01*
X22461D01*
X25000Y135078D01*
Y130000D01*
X22461Y127461D01*
X14843D01*
X19922D02*
X25000Y122382D01*
X30078D02*
X35157D01*
X32618D01*
Y137618D01*
X30078Y135078D01*
X138000Y150618D02*
X132922D01*
X135461D01*
Y137922D01*
X132922Y135382D01*
X130382D01*
X127843Y137922D01*
X143078Y135382D02*
X148157D01*
X145618D01*
Y150618D01*
X143078Y148078D01*
X14843Y77618D02*
Y62382D01*
X22461D01*
X25000Y64922D01*
Y75078D01*
X22461Y77618D01*
X14843D01*
X30078Y62382D02*
X35157D01*
X32618D01*
Y77618D01*
X30078Y75078D01*
D12*
X55000Y56500D02*
D03*
M02*
